<svg xmlns="http://www.w3.org/2000/svg" xmlns:xlink="http://www.w3.org/1999/xlink" width="500" zoomAndPan="magnify" viewBox="0 0 375 374.999991" height="500" preserveAspectRatio="xMidYMid meet" version="1.0"><defs><g/><linearGradient x1="0" gradientTransform="matrix(0.75, 0, 0, 0.75, 0.0000045, 0)" y1="0" x2="499.999979" gradientUnits="userSpaceOnUse" y2="0" id="87867fd26a"><stop stop-opacity="1" stop-color="rgb(100%, 19.198608%, 19.198608%)" offset="0"/><stop stop-opacity="1" stop-color="rgb(100%, 19.345093%, 19.241333%)" offset="0.0078125"/><stop stop-opacity="1" stop-color="rgb(100%, 19.639587%, 19.328308%)" offset="0.015625"/><stop stop-opacity="1" stop-color="rgb(100%, 19.934082%, 19.413757%)" offset="0.0234375"/><stop stop-opacity="1" stop-color="rgb(100%, 20.230103%, 19.499207%)" offset="0.03125"/><stop stop-opacity="1" stop-color="rgb(100%, 20.524597%, 19.586182%)" offset="0.0390625"/><stop stop-opacity="1" stop-color="rgb(100%, 20.819092%, 19.671631%)" offset="0.046875"/><stop stop-opacity="1" stop-color="rgb(100%, 21.113586%, 19.75708%)" offset="0.0546875"/><stop stop-opacity="1" stop-color="rgb(100%, 21.408081%, 19.844055%)" offset="0.0625"/><stop stop-opacity="1" stop-color="rgb(100%, 21.702576%, 19.929504%)" offset="0.0703125"/><stop stop-opacity="1" stop-color="rgb(100%, 21.99707%, 20.014954%)" offset="0.078125"/><stop stop-opacity="1" stop-color="rgb(100%, 22.291565%, 20.101929%)" offset="0.0859375"/><stop stop-opacity="1" stop-color="rgb(100%, 22.58606%, 20.187378%)" offset="0.09375"/><stop stop-opacity="1" stop-color="rgb(100%, 22.880554%, 20.272827%)" offset="0.101562"/><stop stop-opacity="1" stop-color="rgb(100%, 23.175049%, 20.359802%)" offset="0.109375"/><stop stop-opacity="1" stop-color="rgb(100%, 23.469543%, 20.445251%)" offset="0.117188"/><stop stop-opacity="1" stop-color="rgb(100%, 23.764038%, 20.530701%)" offset="0.125"/><stop stop-opacity="1" stop-color="rgb(100%, 24.058533%, 20.617676%)" offset="0.132812"/><stop stop-opacity="1" stop-color="rgb(100%, 24.353027%, 20.703125%)" offset="0.140625"/><stop stop-opacity="1" stop-color="rgb(100%, 24.647522%, 20.788574%)" offset="0.148437"/><stop stop-opacity="1" stop-color="rgb(100%, 24.942017%, 20.874023%)" offset="0.15625"/><stop stop-opacity="1" stop-color="rgb(100%, 25.236511%, 20.960999%)" offset="0.164062"/><stop stop-opacity="1" stop-color="rgb(100%, 25.531006%, 21.046448%)" offset="0.171875"/><stop stop-opacity="1" stop-color="rgb(100%, 25.8255%, 21.131897%)" offset="0.179687"/><stop stop-opacity="1" stop-color="rgb(100%, 26.119995%, 21.218872%)" offset="0.1875"/><stop stop-opacity="1" stop-color="rgb(100%, 26.41449%, 21.304321%)" offset="0.195312"/><stop stop-opacity="1" stop-color="rgb(100%, 26.708984%, 21.389771%)" offset="0.203125"/><stop stop-opacity="1" stop-color="rgb(100%, 27.003479%, 21.476746%)" offset="0.210938"/><stop stop-opacity="1" stop-color="rgb(100%, 27.297974%, 21.562195%)" offset="0.21875"/><stop stop-opacity="1" stop-color="rgb(100%, 27.592468%, 21.647644%)" offset="0.226562"/><stop stop-opacity="1" stop-color="rgb(100%, 27.886963%, 21.734619%)" offset="0.234375"/><stop stop-opacity="1" stop-color="rgb(100%, 28.181458%, 21.820068%)" offset="0.242188"/><stop stop-opacity="1" stop-color="rgb(100%, 28.475952%, 21.905518%)" offset="0.25"/><stop stop-opacity="1" stop-color="rgb(100%, 28.770447%, 21.992493%)" offset="0.257812"/><stop stop-opacity="1" stop-color="rgb(100%, 29.064941%, 22.077942%)" offset="0.265625"/><stop stop-opacity="1" stop-color="rgb(100%, 29.359436%, 22.163391%)" offset="0.273437"/><stop stop-opacity="1" stop-color="rgb(100%, 29.653931%, 22.250366%)" offset="0.28125"/><stop stop-opacity="1" stop-color="rgb(100%, 29.948425%, 22.335815%)" offset="0.289062"/><stop stop-opacity="1" stop-color="rgb(100%, 30.24292%, 22.421265%)" offset="0.296875"/><stop stop-opacity="1" stop-color="rgb(100%, 30.537415%, 22.50824%)" offset="0.304687"/><stop stop-opacity="1" stop-color="rgb(100%, 30.831909%, 22.593689%)" offset="0.3125"/><stop stop-opacity="1" stop-color="rgb(100%, 31.126404%, 22.679138%)" offset="0.320312"/><stop stop-opacity="1" stop-color="rgb(100%, 31.420898%, 22.766113%)" offset="0.328125"/><stop stop-opacity="1" stop-color="rgb(100%, 31.715393%, 22.851562%)" offset="0.335937"/><stop stop-opacity="1" stop-color="rgb(100%, 32.009888%, 22.937012%)" offset="0.34375"/><stop stop-opacity="1" stop-color="rgb(100%, 32.304382%, 23.022461%)" offset="0.351562"/><stop stop-opacity="1" stop-color="rgb(100%, 32.600403%, 23.109436%)" offset="0.359375"/><stop stop-opacity="1" stop-color="rgb(100%, 32.894897%, 23.194885%)" offset="0.367187"/><stop stop-opacity="1" stop-color="rgb(100%, 33.189392%, 23.280334%)" offset="0.375"/><stop stop-opacity="1" stop-color="rgb(100%, 33.483887%, 23.36731%)" offset="0.382812"/><stop stop-opacity="1" stop-color="rgb(100%, 33.778381%, 23.452759%)" offset="0.390625"/><stop stop-opacity="1" stop-color="rgb(100%, 34.072876%, 23.538208%)" offset="0.398438"/><stop stop-opacity="1" stop-color="rgb(100%, 34.367371%, 23.625183%)" offset="0.40625"/><stop stop-opacity="1" stop-color="rgb(100%, 34.661865%, 23.710632%)" offset="0.414062"/><stop stop-opacity="1" stop-color="rgb(100%, 34.95636%, 23.796082%)" offset="0.421875"/><stop stop-opacity="1" stop-color="rgb(100%, 35.250854%, 23.883057%)" offset="0.429688"/><stop stop-opacity="1" stop-color="rgb(100%, 35.545349%, 23.968506%)" offset="0.4375"/><stop stop-opacity="1" stop-color="rgb(100%, 35.839844%, 24.053955%)" offset="0.445312"/><stop stop-opacity="1" stop-color="rgb(100%, 36.134338%, 24.14093%)" offset="0.453125"/><stop stop-opacity="1" stop-color="rgb(100%, 36.428833%, 24.226379%)" offset="0.460938"/><stop stop-opacity="1" stop-color="rgb(100%, 36.723328%, 24.311829%)" offset="0.46875"/><stop stop-opacity="1" stop-color="rgb(100%, 37.017822%, 24.398804%)" offset="0.476562"/><stop stop-opacity="1" stop-color="rgb(100%, 37.312317%, 24.484253%)" offset="0.484375"/><stop stop-opacity="1" stop-color="rgb(100%, 37.606812%, 24.569702%)" offset="0.492188"/><stop stop-opacity="1" stop-color="rgb(100%, 37.901306%, 24.656677%)" offset="0.5"/><stop stop-opacity="1" stop-color="rgb(100%, 38.195801%, 24.742126%)" offset="0.507812"/><stop stop-opacity="1" stop-color="rgb(100%, 38.490295%, 24.827576%)" offset="0.515625"/><stop stop-opacity="1" stop-color="rgb(100%, 38.78479%, 24.914551%)" offset="0.523437"/><stop stop-opacity="1" stop-color="rgb(100%, 39.079285%, 25%)" offset="0.53125"/><stop stop-opacity="1" stop-color="rgb(100%, 39.373779%, 25.085449%)" offset="0.539062"/><stop stop-opacity="1" stop-color="rgb(100%, 39.668274%, 25.170898%)" offset="0.546875"/><stop stop-opacity="1" stop-color="rgb(100%, 39.962769%, 25.257874%)" offset="0.554687"/><stop stop-opacity="1" stop-color="rgb(100%, 40.257263%, 25.343323%)" offset="0.5625"/><stop stop-opacity="1" stop-color="rgb(100%, 40.551758%, 25.428772%)" offset="0.570312"/><stop stop-opacity="1" stop-color="rgb(100%, 40.846252%, 25.515747%)" offset="0.578125"/><stop stop-opacity="1" stop-color="rgb(100%, 41.140747%, 25.601196%)" offset="0.585937"/><stop stop-opacity="1" stop-color="rgb(100%, 41.435242%, 25.686646%)" offset="0.59375"/><stop stop-opacity="1" stop-color="rgb(100%, 41.729736%, 25.773621%)" offset="0.601562"/><stop stop-opacity="1" stop-color="rgb(100%, 42.024231%, 25.85907%)" offset="0.609375"/><stop stop-opacity="1" stop-color="rgb(100%, 42.318726%, 25.944519%)" offset="0.617187"/><stop stop-opacity="1" stop-color="rgb(100%, 42.61322%, 26.031494%)" offset="0.625"/><stop stop-opacity="1" stop-color="rgb(100%, 42.907715%, 26.116943%)" offset="0.632812"/><stop stop-opacity="1" stop-color="rgb(100%, 43.202209%, 26.202393%)" offset="0.640625"/><stop stop-opacity="1" stop-color="rgb(100%, 43.496704%, 26.289368%)" offset="0.648437"/><stop stop-opacity="1" stop-color="rgb(100%, 43.791199%, 26.374817%)" offset="0.65625"/><stop stop-opacity="1" stop-color="rgb(100%, 44.085693%, 26.460266%)" offset="0.664062"/><stop stop-opacity="1" stop-color="rgb(100%, 44.380188%, 26.547241%)" offset="0.671875"/><stop stop-opacity="1" stop-color="rgb(100%, 44.674683%, 26.63269%)" offset="0.679687"/><stop stop-opacity="1" stop-color="rgb(100%, 44.970703%, 26.71814%)" offset="0.6875"/><stop stop-opacity="1" stop-color="rgb(100%, 45.265198%, 26.805115%)" offset="0.695312"/><stop stop-opacity="1" stop-color="rgb(100%, 45.559692%, 26.890564%)" offset="0.703125"/><stop stop-opacity="1" stop-color="rgb(100%, 45.854187%, 26.976013%)" offset="0.710937"/><stop stop-opacity="1" stop-color="rgb(100%, 46.148682%, 27.062988%)" offset="0.71875"/><stop stop-opacity="1" stop-color="rgb(100%, 46.443176%, 27.148438%)" offset="0.726562"/><stop stop-opacity="1" stop-color="rgb(100%, 46.737671%, 27.233887%)" offset="0.734375"/><stop stop-opacity="1" stop-color="rgb(100%, 47.032166%, 27.319336%)" offset="0.742187"/><stop stop-opacity="1" stop-color="rgb(100%, 47.32666%, 27.406311%)" offset="0.75"/><stop stop-opacity="1" stop-color="rgb(100%, 47.621155%, 27.49176%)" offset="0.757812"/><stop stop-opacity="1" stop-color="rgb(100%, 47.915649%, 27.577209%)" offset="0.765625"/><stop stop-opacity="1" stop-color="rgb(100%, 48.210144%, 27.664185%)" offset="0.773438"/><stop stop-opacity="1" stop-color="rgb(100%, 48.504639%, 27.749634%)" offset="0.78125"/><stop stop-opacity="1" stop-color="rgb(100%, 48.799133%, 27.835083%)" offset="0.789062"/><stop stop-opacity="1" stop-color="rgb(100%, 49.093628%, 27.922058%)" offset="0.796875"/><stop stop-opacity="1" stop-color="rgb(100%, 49.388123%, 28.007507%)" offset="0.804688"/><stop stop-opacity="1" stop-color="rgb(100%, 49.682617%, 28.092957%)" offset="0.8125"/><stop stop-opacity="1" stop-color="rgb(100%, 49.977112%, 28.179932%)" offset="0.820312"/><stop stop-opacity="1" stop-color="rgb(100%, 50.271606%, 28.265381%)" offset="0.828125"/><stop stop-opacity="1" stop-color="rgb(100%, 50.566101%, 28.35083%)" offset="0.835938"/><stop stop-opacity="1" stop-color="rgb(100%, 50.860596%, 28.437805%)" offset="0.84375"/><stop stop-opacity="1" stop-color="rgb(100%, 51.15509%, 28.523254%)" offset="0.851562"/><stop stop-opacity="1" stop-color="rgb(100%, 51.449585%, 28.608704%)" offset="0.859375"/><stop stop-opacity="1" stop-color="rgb(100%, 51.74408%, 28.695679%)" offset="0.867188"/><stop stop-opacity="1" stop-color="rgb(100%, 52.038574%, 28.781128%)" offset="0.875"/><stop stop-opacity="1" stop-color="rgb(100%, 52.333069%, 28.866577%)" offset="0.882812"/><stop stop-opacity="1" stop-color="rgb(100%, 52.627563%, 28.953552%)" offset="0.890625"/><stop stop-opacity="1" stop-color="rgb(100%, 52.922058%, 29.039001%)" offset="0.898438"/><stop stop-opacity="1" stop-color="rgb(100%, 53.216553%, 29.124451%)" offset="0.90625"/><stop stop-opacity="1" stop-color="rgb(100%, 53.511047%, 29.211426%)" offset="0.914062"/><stop stop-opacity="1" stop-color="rgb(100%, 53.805542%, 29.296875%)" offset="0.921875"/><stop stop-opacity="1" stop-color="rgb(100%, 54.100037%, 29.382324%)" offset="0.929688"/><stop stop-opacity="1" stop-color="rgb(100%, 54.394531%, 29.467773%)" offset="0.9375"/><stop stop-opacity="1" stop-color="rgb(100%, 54.689026%, 29.554749%)" offset="0.945312"/><stop stop-opacity="1" stop-color="rgb(100%, 54.983521%, 29.640198%)" offset="0.953125"/><stop stop-opacity="1" stop-color="rgb(100%, 55.278015%, 29.725647%)" offset="0.960938"/><stop stop-opacity="1" stop-color="rgb(100%, 55.57251%, 29.812622%)" offset="0.96875"/><stop stop-opacity="1" stop-color="rgb(100%, 55.867004%, 29.898071%)" offset="0.976562"/><stop stop-opacity="1" stop-color="rgb(100%, 56.161499%, 29.983521%)" offset="0.984375"/><stop stop-opacity="1" stop-color="rgb(100%, 56.455994%, 30.070496%)" offset="0.992188"/><stop stop-opacity="1" stop-color="rgb(100%, 56.750488%, 30.155945%)" offset="1"/></linearGradient><clipPath id="4b0ef829c4"><path d="M 124.363281 99 L 262.363281 99 L 262.363281 281.632812 L 124.363281 281.632812 Z M 124.363281 99 " clip-rule="nonzero"/></clipPath></defs><rect x="-37.5" width="450" fill="#ffffff" y="-37.499999" height="449.999989" fill-opacity="1"/><rect x="-37.5" fill="url(#87867fd26a)" width="450" y="-37.499999" height="449.999989"/><g clip-path="url(#4b0ef829c4)"><path fill="#ffffff" d="M 124.390625 188.066406 C 124.390625 178.742188 126.214844 169.699219 129.8125 161.179688 C 133.289062 152.953125 138.261719 145.566406 144.59375 139.222656 C 150.929688 132.878906 158.304688 127.902344 166.519531 124.421875 C 175.027344 120.820312 184.058594 118.992188 193.371094 118.992188 C 200.25 118.992188 207.023438 120.003906 213.53125 121.996094 L 229.90625 100.25 C 230.921875 98.898438 232.839844 98.628906 234.191406 99.648438 C 235.542969 100.667969 235.8125 102.589844 234.792969 103.941406 L 191.257812 161.769531 C 191.117188 161.953125 190.957031 162.121094 190.785156 162.265625 C 195.125 167.269531 195.550781 174.816406 191.40625 180.320312 L 183.265625 191.132812 C 178.503906 197.453125 169.5 198.71875 163.1875 193.953125 C 156.875 189.1875 155.613281 180.171875 160.371094 173.851562 C 160.410156 173.800781 160.449219 173.753906 160.488281 173.707031 C 160.523438 173.65625 160.558594 173.601562 160.59375 173.550781 L 168.511719 163.035156 C 172.65625 157.535156 180.015625 155.863281 186.015625 158.667969 C 186.109375 158.460938 186.226562 158.261719 186.367188 158.074219 L 209.828125 126.914062 C 204.484375 125.476562 198.96875 124.75 193.371094 124.75 C 158.503906 124.75 130.140625 153.152344 130.140625 188.066406 C 130.140625 207.277344 138.703125 225.226562 153.632812 237.324219 C 154.867188 238.324219 155.058594 240.132812 154.058594 241.371094 C 153.492188 242.074219 152.660156 242.4375 151.824219 242.4375 C 151.1875 242.4375 150.550781 242.230469 150.019531 241.796875 C 133.730469 228.605469 124.390625 209.023438 124.390625 188.066406 Z M 187.628906 209.542969 C 189.0625 207.640625 191.152344 206.410156 193.511719 206.078125 C 193.933594 206.019531 194.355469 205.988281 194.773438 205.988281 C 196.699219 205.988281 198.5625 206.609375 200.121094 207.785156 C 202.019531 209.21875 203.246094 211.3125 203.578125 213.675781 C 203.910156 216.042969 203.304688 218.390625 201.871094 220.292969 C 200.441406 222.195312 198.351562 223.425781 195.988281 223.757812 C 193.628906 224.089844 191.28125 223.480469 189.382812 222.046875 C 187.484375 220.613281 186.253906 218.523438 185.925781 216.15625 C 185.59375 213.792969 186.199219 211.441406 187.628906 209.542969 Z M 253.875 221.265625 C 259.421875 211.140625 262.351562 199.683594 262.351562 188.066406 C 262.351562 165.144531 251.027344 143.765625 232.066406 130.875 C 230.75 129.980469 228.964844 130.324219 228.074219 131.640625 C 227.179688 132.953125 227.523438 134.746094 228.835938 135.636719 C 246.222656 147.453125 256.601562 167.054688 256.601562 188.066406 C 256.601562 199.027344 253.761719 209.824219 248.390625 219.292969 C 248.074219 219.851562 247.953125 220.5 248.046875 221.132812 L 254.253906 263.480469 L 218.253906 247.253906 C 217.554688 246.941406 216.761719 246.917969 216.042969 247.195312 C 208.816406 249.976562 201.1875 251.386719 193.371094 251.386719 C 186.5 251.386719 179.785156 250.296875 173.359375 248.148438 L 188.914062 227.488281 C 191.640625 228.757812 194.730469 229.101562 197.699219 228.457031 C 200.933594 227.753906 203.816406 225.910156 205.804688 223.265625 L 224.648438 198.242188 C 225.460938 197.15625 225.246094 195.605469 224.160156 194.785156 C 223.078125 193.964844 221.53125 194.183594 220.710938 195.269531 L 208.242188 211.832031 C 207.707031 209.472656 206.5625 207.289062 204.921875 205.507812 L 215.558594 191.378906 C 216.375 190.292969 216.160156 188.742188 215.074219 187.925781 C 214.546875 187.527344 213.902344 187.359375 213.25 187.449219 C 212.597656 187.542969 212.019531 187.882812 211.625 188.40625 L 200.984375 202.539062 C 198.824219 201.445312 196.414062 200.945312 194 201.082031 L 206.46875 184.515625 C 206.867188 183.992188 207.035156 183.34375 206.941406 182.691406 C 206.851562 182.039062 206.511719 181.460938 205.988281 181.0625 C 205.460938 180.667969 204.8125 180.496094 204.164062 180.589844 C 203.511719 180.679688 202.933594 181.023438 202.535156 181.546875 L 183.695312 206.570312 C 181.703125 209.21875 180.726562 212.496094 180.941406 215.804688 C 181.136719 218.839844 182.320312 221.722656 184.289062 223.996094 L 167.050781 246.890625 C 166.5 247.199219 166.046875 247.6875 165.792969 248.316406 C 165.734375 248.453125 165.695312 248.59375 165.660156 248.738281 L 144.730469 276.535156 C 144.179688 277.265625 143.875 278.128906 143.875 278.960938 C 143.878906 279.859375 144.246094 280.65625 144.890625 281.144531 C 145.328125 281.472656 145.855469 281.632812 146.40625 281.632812 C 147.449219 281.632812 148.578125 281.058594 149.355469 280.027344 L 169.722656 252.976562 C 177.285156 255.742188 185.226562 257.140625 193.371094 257.140625 C 201.488281 257.140625 209.421875 255.746094 216.976562 252.992188 L 256.679688 270.882812 C 257.058594 271.054688 257.460938 271.136719 257.859375 271.136719 C 258.476562 271.136719 259.082031 270.9375 259.589844 270.554688 C 260.429688 269.921875 260.855469 268.882812 260.703125 267.839844 L 253.875 221.265625 " fill-opacity="1" fill-rule="nonzero"/></g><g fill="#ffffff" fill-opacity="1"><g transform="translate(117.749667, 213.434778)"><g><path d="M -0.609375 -2.453125 C -0.546875 -2.234375 -0.570312 -2.03125 -0.6875 -1.84375 C -0.800781 -1.65625 -0.96875 -1.535156 -1.1875 -1.484375 L -11.6875 1.09375 C -11.894531 1.144531 -12.09375 1.113281 -12.28125 1 C -12.476562 0.882812 -12.609375 0.71875 -12.671875 0.5 L -13.515625 -2.984375 C -13.835938 -4.296875 -13.816406 -5.476562 -13.453125 -6.53125 C -13.097656 -7.59375 -12.519531 -8.460938 -11.71875 -9.140625 C -10.914062 -9.828125 -10.007812 -10.296875 -9 -10.546875 C -7.96875 -10.796875 -6.9375 -10.804688 -5.90625 -10.578125 C -4.875 -10.347656 -3.953125 -9.84375 -3.140625 -9.0625 C -2.335938 -8.289062 -1.773438 -7.25 -1.453125 -5.9375 Z M -2.875 -5.375 C -3.101562 -6.320312 -3.5 -7.101562 -4.0625 -7.71875 C -4.625 -8.34375 -5.296875 -8.765625 -6.078125 -8.984375 C -6.859375 -9.203125 -7.703125 -9.203125 -8.609375 -8.984375 C -9.492188 -8.765625 -10.234375 -8.375 -10.828125 -7.8125 C -11.421875 -7.257812 -11.820312 -6.578125 -12.03125 -5.765625 C -12.238281 -4.960938 -12.226562 -4.085938 -12 -3.140625 L -11.390625 -0.65625 L -2.265625 -2.890625 Z M -2.875 -5.375 "/></g></g></g><g fill="#ffffff" fill-opacity="1"><g transform="translate(114.287735, 197.968476)"><g><path d="M -0.140625 -2.53125 C -0.128906 -2.300781 -0.195312 -2.101562 -0.34375 -1.9375 C -0.488281 -1.769531 -0.671875 -1.679688 -0.890625 -1.671875 L -11.6875 -1.09375 C -11.90625 -1.070312 -12.097656 -1.132812 -12.265625 -1.28125 C -12.441406 -1.4375 -12.535156 -1.628906 -12.546875 -1.859375 L -12.9375 -8.96875 C -12.945312 -9.1875 -12.878906 -9.367188 -12.734375 -9.515625 C -12.597656 -9.671875 -12.421875 -9.753906 -12.203125 -9.765625 C -11.992188 -9.773438 -11.8125 -9.710938 -11.65625 -9.578125 C -11.507812 -9.441406 -11.429688 -9.265625 -11.421875 -9.046875 L -11.078125 -2.75 L -7.140625 -2.96875 L -7.4375 -8.625 C -7.457031 -8.84375 -7.394531 -9.023438 -7.25 -9.171875 C -7.113281 -9.328125 -6.941406 -9.410156 -6.734375 -9.421875 C -6.515625 -9.429688 -6.332031 -9.367188 -6.1875 -9.234375 C -6.039062 -9.097656 -5.957031 -8.921875 -5.9375 -8.703125 L -5.640625 -3.046875 L -1.703125 -3.265625 L -2.046875 -9.5625 C -2.054688 -9.78125 -1.988281 -9.960938 -1.84375 -10.109375 C -1.695312 -10.265625 -1.519531 -10.347656 -1.3125 -10.359375 C -1.09375 -10.378906 -0.910156 -10.316406 -0.765625 -10.171875 C -0.617188 -10.035156 -0.539062 -9.859375 -0.53125 -9.640625 Z M -0.140625 -2.53125 "/></g></g></g><g fill="#ffffff" fill-opacity="1"><g transform="translate(113.792318, 184.05001)"><g><path d="M 0.328125 -2.828125 C 0.285156 -2.523438 0.144531 -2.273438 -0.09375 -2.078125 C -0.34375 -1.878906 -0.625 -1.796875 -0.9375 -1.828125 L -11.421875 -3.03125 C -11.648438 -3.050781 -11.832031 -3.148438 -11.96875 -3.328125 C -12.113281 -3.503906 -12.175781 -3.707031 -12.15625 -3.9375 C -12.125 -4.15625 -12.019531 -4.332031 -11.84375 -4.46875 C -11.664062 -4.613281 -11.460938 -4.675781 -11.234375 -4.65625 L -1.234375 -3.515625 L -0.578125 -9.296875 C -0.546875 -9.515625 -0.441406 -9.691406 -0.265625 -9.828125 C -0.0976562 -9.972656 0.0976562 -10.035156 0.328125 -10.015625 C 0.546875 -9.984375 0.722656 -9.878906 0.859375 -9.703125 C 1.003906 -9.523438 1.0625 -9.328125 1.03125 -9.109375 Z M 0.328125 -2.828125 "/></g></g></g><g fill="#ffffff" fill-opacity="1"><g transform="translate(115.608272, 171.18005)"><g><path d="M 0.703125 -2.4375 C 0.648438 -2.21875 0.53125 -2.050781 0.34375 -1.9375 C 0.15625 -1.820312 -0.0507812 -1.789062 -0.28125 -1.84375 L -10.921875 -4.5 C -11.140625 -4.550781 -11.304688 -4.671875 -11.421875 -4.859375 C -11.546875 -5.054688 -11.582031 -5.265625 -11.53125 -5.484375 C -11.476562 -5.703125 -11.351562 -5.867188 -11.15625 -5.984375 C -10.957031 -6.097656 -10.75 -6.128906 -10.53125 -6.078125 L 0.109375 -3.421875 C 0.335938 -3.367188 0.503906 -3.242188 0.609375 -3.046875 C 0.722656 -2.859375 0.753906 -2.65625 0.703125 -2.4375 Z M 0.703125 -2.4375 "/></g></g></g><g fill="#ffffff" fill-opacity="1"><g transform="translate(117.425544, 163.609395)"><g><path d="M 2.359375 -5.515625 C 2.171875 -5.054688 1.769531 -4.816406 1.15625 -4.796875 L -10.359375 -4.75 C -10.460938 -4.75 -10.566406 -4.765625 -10.671875 -4.796875 C -10.898438 -4.898438 -11.054688 -5.046875 -11.140625 -5.234375 C -11.222656 -5.421875 -11.21875 -5.628906 -11.125 -5.859375 C -11.0625 -6.015625 -10.953125 -6.132812 -10.796875 -6.21875 C -10.648438 -6.3125 -10.488281 -6.363281 -10.3125 -6.375 L 0.90625 -6.296875 L -7.15625 -14.109375 C -7.28125 -14.234375 -7.363281 -14.375 -7.40625 -14.53125 C -7.457031 -14.695312 -7.453125 -14.859375 -7.390625 -15.015625 C -7.296875 -15.242188 -7.148438 -15.394531 -6.953125 -15.46875 C -6.765625 -15.550781 -6.554688 -15.539062 -6.328125 -15.4375 C -6.222656 -15.40625 -6.132812 -15.359375 -6.0625 -15.296875 L 2.140625 -7.203125 C 2.554688 -6.753906 2.675781 -6.3125 2.5 -5.875 Z M 2.359375 -5.515625 "/></g></g></g><g fill="#ffffff" fill-opacity="1"><g transform="translate(123.290222, 149.949403)"><g><path d="M 1.359375 -2.140625 C 1.234375 -1.941406 1.0625 -1.816406 0.84375 -1.765625 C 0.632812 -1.722656 0.4375 -1.757812 0.25 -1.875 L -8.875 -7.6875 C -9.050781 -7.8125 -9.164062 -7.976562 -9.21875 -8.1875 C -9.269531 -8.40625 -9.234375 -8.613281 -9.109375 -8.8125 L -5.28125 -14.8125 C -5.164062 -15 -5.007812 -15.113281 -4.8125 -15.15625 C -4.613281 -15.195312 -4.421875 -15.160156 -4.234375 -15.046875 C -4.054688 -14.929688 -3.945312 -14.773438 -3.90625 -14.578125 C -3.863281 -14.378906 -3.898438 -14.1875 -4.015625 -14 L -7.40625 -8.671875 L -4.078125 -6.5625 L -1.03125 -11.359375 C -0.914062 -11.535156 -0.753906 -11.644531 -0.546875 -11.6875 C -0.347656 -11.738281 -0.164062 -11.707031 0 -11.59375 C 0.1875 -11.476562 0.300781 -11.316406 0.34375 -11.109375 C 0.382812 -10.910156 0.347656 -10.722656 0.234375 -10.546875 L -2.8125 -5.75 L 0.515625 -3.625 L 3.90625 -8.953125 C 4.019531 -9.140625 4.179688 -9.253906 4.390625 -9.296875 C 4.597656 -9.335938 4.789062 -9.300781 4.96875 -9.1875 C 5.144531 -9.070312 5.253906 -8.914062 5.296875 -8.71875 C 5.335938 -8.519531 5.300781 -8.328125 5.1875 -8.140625 Z M 1.359375 -2.140625 "/></g></g></g><g fill="#ffffff" fill-opacity="1"><g transform="translate(130.903252, 138.347472)"><g><path d="M 1.71875 -1.859375 C 1.5625 -1.691406 1.375 -1.601562 1.15625 -1.59375 C 0.9375 -1.582031 0.75 -1.65625 0.59375 -1.8125 L -7.34375 -9.15625 C -7.5 -9.300781 -7.582031 -9.484375 -7.59375 -9.703125 C -7.613281 -9.929688 -7.546875 -10.128906 -7.390625 -10.296875 L -4.53125 -13.375 C -3.675781 -14.300781 -2.796875 -14.820312 -1.890625 -14.9375 C -0.992188 -15.050781 -0.1875 -14.773438 0.53125 -14.109375 C 1.03125 -13.648438 1.335938 -13.144531 1.453125 -12.59375 C 1.578125 -12.039062 1.546875 -11.5 1.359375 -10.96875 C 2.003906 -11.332031 2.664062 -11.507812 3.34375 -11.5 C 4.019531 -11.5 4.632812 -11.242188 5.1875 -10.734375 C 5.988281 -9.984375 6.363281 -9.128906 6.3125 -8.171875 C 6.269531 -7.222656 5.710938 -6.164062 4.640625 -5 Z M -0.890625 -9.421875 C -0.171875 -10.191406 0.203125 -10.851562 0.234375 -11.40625 C 0.265625 -11.957031 0.046875 -12.453125 -0.421875 -12.890625 C -0.828125 -13.265625 -1.304688 -13.398438 -1.859375 -13.296875 C -2.421875 -13.191406 -2.96875 -12.847656 -3.5 -12.265625 L -5.734375 -9.875 L -2.90625 -7.25 Z M 3.421875 -5.921875 C 4.210938 -6.773438 4.640625 -7.492188 4.703125 -8.078125 C 4.765625 -8.671875 4.554688 -9.191406 4.078125 -9.640625 C 3.078125 -10.554688 1.863281 -10.242188 0.4375 -8.703125 L -1.84375 -6.25 L 1.15625 -3.484375 Z M 3.421875 -5.921875 "/></g></g></g><g fill="#ffffff" fill-opacity="1"><g transform="translate(141.049902, 127.603802)"><g><path d="M 5.953125 -4.078125 C 4.941406 -3.359375 3.898438 -2.941406 2.828125 -2.828125 C 1.753906 -2.710938 0.726562 -2.894531 -0.25 -3.375 C -1.226562 -3.863281 -2.09375 -4.613281 -2.84375 -5.625 C -3.539062 -6.632812 -3.96875 -7.675781 -4.125 -8.75 C -4.28125 -9.832031 -4.132812 -10.867188 -3.6875 -11.859375 C -3.25 -12.859375 -2.523438 -13.71875 -1.515625 -14.4375 C -0.503906 -15.164062 0.535156 -15.582031 1.609375 -15.6875 C 2.679688 -15.789062 3.707031 -15.597656 4.6875 -15.109375 C 5.675781 -14.628906 6.539062 -13.898438 7.28125 -12.921875 C 7.988281 -11.898438 8.414062 -10.84375 8.5625 -9.75 C 8.71875 -8.664062 8.570312 -7.628906 8.125 -6.640625 C 7.6875 -5.660156 6.960938 -4.804688 5.953125 -4.078125 Z M 5.078125 -5.296875 C 5.847656 -5.859375 6.390625 -6.515625 6.703125 -7.265625 C 7.023438 -8.015625 7.117188 -8.800781 6.984375 -9.625 C 6.859375 -10.445312 6.523438 -11.234375 5.984375 -11.984375 C 5.453125 -12.722656 4.816406 -13.28125 4.078125 -13.65625 C 3.347656 -14.039062 2.570312 -14.203125 1.75 -14.140625 C 0.9375 -14.085938 0.144531 -13.78125 -0.625 -13.21875 C -1.40625 -12.65625 -1.953125 -12 -2.265625 -11.25 C -2.578125 -10.5 -2.664062 -9.710938 -2.53125 -8.890625 C -2.394531 -8.078125 -2.0625 -7.300781 -1.53125 -6.5625 C -0.988281 -5.8125 -0.351562 -5.242188 0.375 -4.859375 C 1.101562 -4.472656 1.875 -4.304688 2.6875 -4.359375 C 3.5 -4.421875 4.296875 -4.734375 5.078125 -5.296875 Z M 5.078125 -5.296875 "/></g></g></g><g fill="#ffffff" fill-opacity="1"><g transform="translate(154.845205, 117.96312)"><g><path d="M 6.671875 -2.75 C 5.535156 -2.25 4.429688 -2.054688 3.359375 -2.171875 C 2.285156 -2.296875 1.320312 -2.695312 0.46875 -3.375 C -0.382812 -4.050781 -1.070312 -4.953125 -1.59375 -6.078125 C -2.070312 -7.222656 -2.269531 -8.34375 -2.1875 -9.4375 C -2.113281 -10.53125 -1.753906 -11.507812 -1.109375 -12.375 C -0.472656 -13.25 0.410156 -13.9375 1.546875 -14.4375 C 2.691406 -14.9375 3.800781 -15.125 4.875 -15 C 5.945312 -14.882812 6.910156 -14.484375 7.765625 -13.796875 C 8.617188 -13.117188 9.304688 -12.222656 9.828125 -11.109375 C 10.304688 -9.960938 10.503906 -8.84375 10.421875 -7.75 C 10.347656 -6.65625 9.988281 -5.671875 9.34375 -4.796875 C 8.707031 -3.929688 7.816406 -3.25 6.671875 -2.75 Z M 6.078125 -4.125 C 6.953125 -4.507812 7.625 -5.035156 8.09375 -5.703125 C 8.5625 -6.378906 8.816406 -7.128906 8.859375 -7.953125 C 8.898438 -8.773438 8.734375 -9.609375 8.359375 -10.453125 C 7.984375 -11.296875 7.476562 -11.984375 6.84375 -12.515625 C 6.207031 -13.046875 5.484375 -13.363281 4.671875 -13.46875 C 3.859375 -13.582031 3.015625 -13.445312 2.140625 -13.0625 C 1.265625 -12.675781 0.59375 -12.144531 0.125 -11.46875 C -0.332031 -10.800781 -0.582031 -10.054688 -0.625 -9.234375 C -0.664062 -8.410156 -0.5 -7.578125 -0.125 -6.734375 C 0.25 -5.890625 0.753906 -5.203125 1.390625 -4.671875 C 2.023438 -4.140625 2.742188 -3.816406 3.546875 -3.703125 C 4.359375 -3.597656 5.203125 -3.738281 6.078125 -4.125 Z M 6.078125 -4.125 "/></g></g></g></svg>